# File created by Blade
# Date/Time:  Tue Jan 27 18:01:49 2015
# Frame Rate: 120.000 fps
#------------------------------------------------------
:FULLY-SPECIFIED
:DEGREES
1605
root -1.480955 31.941675 -5.742864 8.499243 28.170895 6.108166
Spine -7.353899 -2.236281 -3.089745
Head 8.065131 -16.639481 -10.830092
LeftShoulder -10.652242 13.575868 8.457298
LeftArm 26.130608 43.628245 -72.876892
LeftForeArm -1.633244 -0.000000 12.197063
LeftHand -10.918123 -0.000000 -6.367905
LeftHandThumb1 -26.253704 0.000000 33.147579
RightShoulder -15.542703 39.451096 -59.687942
RightArm 71.525953 39.696115 70.312047
RightForeArm 15.397516 -0.000000 88.150887
RightHand -8.094082 -0.000000 16.390344
RightHandThumb1 -24.326973 -0.000000 -32.862282
LeftUpLeg -3.682110 -12.541145 -0.583759
LeftLeg 0.185787 -0.000000 -0.000000
LeftFoot -11.255155 8.985392 -23.933409
LeftToeBase 8.634264 -0.000000 -0.000000
RightUpLeg 5.200991 -15.807821 -3.448859
RightLeg -4.441605 -0.000000 0.000000
RightFoot -18.227226 -22.145749 12.671805
RightToeBase 5.383795 -0.000000 -0.000000
1606
root -1.473939 31.940733 -5.736632 8.444758 28.269213 6.162071
Spine -7.341551 -2.474430 -3.068474
Head 8.118343 -16.330022 -10.704965
LeftShoulder -10.825384 13.601486 8.428595
LeftArm 25.975579 43.504624 -73.062285
LeftForeArm -1.537301 -0.000000 12.154337
LeftHand -11.077111 -0.000000 -6.274161
LeftHandThumb1 -26.253704 0.000000 33.147579
RightShoulder -15.843757 38.623412 -59.809103
RightArm 69.874765 38.797414 65.715488
RightForeArm 13.970451 -0.000000 87.187653
RightHand -7.833574 -0.000000 17.259636
RightHandThumb1 -24.326973 -0.000000 -32.862282
LeftUpLeg -3.594492 -12.580144 -0.642571
LeftLeg 0.182490 -0.000000 -0.000000
LeftFoot -11.222121 8.920746 -23.956266
LeftToeBase 8.654248 -0.000000 -0.000000
RightUpLeg 5.286139 -15.917898 -3.512187
RightLeg -4.376375 -0.000000 0.000000
RightFoot -18.289574 -22.181816 12.640534
RightToeBase 5.386640 -0.000000 -0.000000
1607
root -1.468353 31.937926 -5.730979 8.386613 28.338966 6.194383
Spine -7.351170 -2.710069 -3.037121
Head 8.104637 -16.137708 -10.531198
LeftShoulder -10.993162 13.695450 8.393400
LeftArm 25.881326 43.352187 -73.207162
LeftForeArm -1.507489 -0.000000 12.114804
LeftHand -11.247994 -0.000000 -6.194892
LeftHandThumb1 -26.253704 0.000000 33.147579
RightShoulder -16.075106 37.834284 -59.875026
RightArm 68.360918 37.759194 61.232840
RightForeArm 12.689555 -0.000000 86.520194
RightHand -7.800833 -0.000000 17.282591
RightHandThumb1 -24.326973 -0.000000 -32.862282
LeftUpLeg -3.516649 -12.555901 -0.684466
LeftLeg 0.192340 -0.000000 -0.000000
LeftFoot -11.194266 8.817145 -23.921210
LeftToeBase 8.606176 -0.000000 -0.000000
RightUpLeg 5.379938 -15.929404 -3.555699
RightLeg -4.357217 -0.000000 0.000000
RightFoot -18.340303 -22.253623 12.632327
RightToeBase 5.361273 -0.000000 -0.000000
1608
root -1.462265 31.934161 -5.726106 8.331920 28.381718 6.232147
Spine -7.360059 -2.896445 -3.030308
Head 8.094859 -15.987123 -10.316376
LeftShoulder -11.125369 13.743637 8.383467
LeftArm 25.742218 43.243023 -73.376798
LeftForeArm -1.502926 -0.000000 12.076439
LeftHand -11.238195 -0.000000 -6.100776
LeftHandThumb1 -26.253704 0.000000 33.147579
RightShoulder -16.332710 37.164670 -59.969638
RightArm 66.888163 36.578946 56.894387
RightForeArm 11.731170 -0.000000 86.069394
RightHand -7.614035 -0.000000 18.138058
RightHandThumb1 -24.326973 -0.000000 -32.862282
LeftUpLeg -3.433383 -12.546131 -0.735648
LeftLeg 0.194694 -0.000000 -0.000000
LeftFoot -11.197657 8.744854 -23.921087
LeftToeBase 8.712418 -0.000000 -0.000000
RightUpLeg 5.477195 -15.893080 -3.608509
RightLeg -4.356420 -0.000000 0.000000
RightFoot -18.418810 -22.316358 12.673606
RightToeBase 5.391433 -0.000000 -0.000000
1609
root -1.459366 31.929182 -5.721541 8.282792 28.403423 6.251783
Spine -7.409982 -3.059460 -3.014319
Head 8.150343 -15.883638 -10.113042
LeftShoulder -11.223091 13.800673 8.388775
LeftArm 25.562046 43.100177 -73.581213
LeftForeArm -1.461383 0.000000 12.063680
LeftHand -11.285765 -0.000000 -6.095767
LeftHandThumb1 -26.253704 0.000000 33.147579
RightShoulder -16.402112 36.411917 -59.994633
RightArm 65.451152 35.437427 52.537769
RightForeArm 10.713470 -0.000000 85.876128
RightHand -7.364787 -0.000000 18.088575
RightHandThumb1 -24.326973 -0.000000 -32.862282
LeftUpLeg -3.371148 -12.516686 -0.763429
LeftLeg 0.209147 -0.000000 -0.000000
LeftFoot -11.219655 8.658506 -23.941277
LeftToeBase 8.754733 -0.000000 -0.000000
RightUpLeg 5.562385 -15.815870 -3.635918
RightLeg -4.374807 -0.000000 0.000000
RightFoot -18.476902 -22.409571 12.689069
RightToeBase 5.422754 -0.000000 -0.000000
1610
root -1.457481 31.923232 -5.717828 8.221970 28.404568 6.262040
Spine -7.436944 -3.173042 -3.013294
Head 8.235578 -15.774841 -9.925317
LeftShoulder -11.307403 13.841627 8.409237
LeftArm 25.410675 42.992465 -73.762496
LeftForeArm -1.470183 -0.000000 12.041053
LeftHand -11.159735 -0.000000 -5.988425
LeftHandThumb1 -26.253704 0.000000 33.147579
RightShoulder -16.480826 35.781467 -59.964836
RightArm 64.309400 34.192119 48.410543
RightForeArm 9.402651 -0.000000 85.687242
RightHand -7.159146 -0.000000 18.623633
RightHandThumb1 -24.326973 -0.000000 -32.862282
LeftUpLeg -3.300463 -12.496413 -0.785426
LeftLeg 0.218300 -0.000000 -0.000000
LeftFoot -11.262930 8.603656 -23.955826
LeftToeBase 8.691570 -0.000000 -0.000000
RightUpLeg 5.646013 -15.762293 -3.662205
RightLeg -4.387095 -0.000000 0.000000
RightFoot -18.538148 -22.451376 12.697411
RightToeBase 5.421971 -0.000000 -0.000000
1611
root -1.453391 31.912552 -5.713047 8.146258 28.380855 6.275003
Spine -7.472157 -3.234487 -3.077694
Head 8.392999 -15.782506 -9.538474
LeftShoulder -11.317044 13.904663 8.560214
LeftArm 25.228729 42.842491 -74.089050
LeftForeArm -1.403586 -0.000000 11.981391
LeftHand -11.195620 -0.000000 -6.050895
LeftHandThumb1 -26.253704 0.000000 33.147579
RightShoulder -15.348169 31.687614 -58.045263
RightArm 66.415427 35.935978 45.411412
RightForeArm 8.540747 0.000000 85.366927
RightHand -6.741901 0.000000 18.830050
RightHandThumb1 -24.326973 -0.000000 -32.862282
LeftUpLeg -3.199826 -12.490173 -0.817129
LeftLeg 0.219710 -0.000000 -0.000000
LeftFoot -11.361842 8.553759 -23.954810
LeftToeBase 8.741294 -0.000000 -0.000000
RightUpLeg 5.743482 -15.776775 -3.707149
RightLeg -4.388596 -0.000000 0.000000
RightFoot -18.633810 -22.417544 12.694049
RightToeBase 5.434440 -0.000000 -0.000000
1612
root -1.453916 31.903857 -5.710158 8.074686 28.330013 6.267556
Spine -7.517981 -3.259696 -3.129261
Head 8.455849 -15.853689 -9.142652
LeftShoulder -11.361399 14.013018 8.651718
LeftArm 25.224771 42.753449 -74.229022
LeftForeArm -1.344036 -0.000000 11.879225
LeftHand -11.152568 -0.000000 -6.048031
LeftHandThumb1 -26.253704 0.000000 33.147579
RightShoulder -14.327053 27.551349 -56.213594
RightArm 68.299968 38.039050 42.374152
RightForeArm 7.330277 -0.000000 85.169524
RightHand -6.685527 0.000000 18.946885
RightHandThumb1 -24.326973 -0.000000 -32.862282
LeftUpLeg -3.122702 -12.452987 -0.824429
LeftLeg 0.229980 -0.000000 -0.000000
LeftFoot -11.442069 8.500571 -23.971348
LeftToeBase 8.753167 -0.000000 -0.000000
RightUpLeg 5.821988 -15.718777 -3.722089
RightLeg -4.410763 -0.000000 0.000000
RightFoot -18.685800 -22.431584 12.662143
RightToeBase 5.431752 -0.000000 -0.000000
1613
root -1.454804 31.899191 -5.707229 8.001728 28.240439 6.260612
Spine -7.566650 -3.234601 -3.189347
Head 8.481255 -15.994113 -8.704821
LeftShoulder -11.393597 14.116436 8.714772
LeftArm 25.244121 42.694851 -74.311097
LeftForeArm -1.277591 -0.000000 11.784676
LeftHand -11.215188 0.000000 -6.127133
LeftHandThumb1 -26.253704 0.000000 33.147579
RightShoulder -13.505848 23.966734 -54.651409
RightArm 69.537578 40.012233 39.123907
RightForeArm 6.253244 -0.000000 84.905744
RightHand -6.641059 -0.000000 19.478920
RightHandThumb1 -24.326973 -0.000000 -32.862282
LeftUpLeg -3.039477 -12.383135 -0.839061
LeftLeg 0.229467 -0.000000 -0.000000
LeftFoot -11.494321 8.500567 -23.993032
LeftToeBase 8.681930 -0.000000 -0.000000
RightUpLeg 5.879791 -15.692289 -3.744794
RightLeg -4.399921 -0.000000 0.000000
RightFoot -18.726492 -22.368311 12.640514
RightToeBase 5.474944 -0.000000 -0.000000
1614
root -1.457737 31.895647 -5.703358 7.898974 28.130575 6.234755
Spine -7.597390 -3.184271 -3.218328
Head 8.553977 -16.097473 -8.451503
LeftShoulder -11.406008 14.216617 8.738167
LeftArm 25.258836 42.633156 -74.336146
LeftForeArm -1.327034 -0.000000 11.730724
LeftHand -11.173477 -0.000000 -6.083820
LeftHandThumb1 -26.253704 0.000000 33.147579
RightShoulder -12.920557 20.915799 -53.432180
RightArm 70.383519 41.568687 36.101274
RightForeArm 5.053777 0.000000 84.592007
RightHand -6.771076 -0.000000 19.882072
RightHandThumb1 -24.326973 -0.000000 -32.862282
LeftUpLeg -2.923976 -12.336357 -0.836423
LeftLeg 0.215051 -0.000000 -0.000000
LeftFoot -11.549639 8.521103 -23.993986
LeftToeBase 8.670003 -0.000000 -0.000000
RightUpLeg 5.958149 -15.658276 -3.755509
RightLeg -4.402529 -0.000000 0.000000
RightFoot -18.717870 -22.293020 12.586726
RightToeBase 5.479607 -0.000000 -0.000000
